<svg id="Layer_1" data-name="Layer 1" xmlns="http://www.w3.org/2000/svg" xmlns:xlink="http://www.w3.org/1999/xlink" viewBox="0 0 710.1 243.1"><defs><style>.cls-1{fill:none;}.cls-2{clip-path:url(#clip-path);}.cls-3{fill:#f2f2f2;}.cls-4{fill:#ababab;}.cls-5{fill:#182628;}</style><clipPath id="clip-path"><rect class="cls-1" width="710.1" height="243.1"/></clipPath></defs><title>logo4</title><g class="cls-2"><path class="cls-3" d="M62.2,147.1H46.5V114.3H15.8v32.8H0V70.6H15.8v31H46.5v-31H62.2Z"/><path class="cls-3" d="M72.6,118.2a35.1,35.1,0,0,1,1.8-11.5,25.9,25.9,0,0,1,5.2-9.2A24.6,24.6,0,0,1,88,91.4a31.2,31.2,0,0,1,23,0,25,25,0,0,1,8.5,6.1,27.6,27.6,0,0,1,5.2,9.2,35.1,35.1,0,0,1,1.8,11.5v1.1a35.5,35.5,0,0,1-1.8,11.5,27.1,27.1,0,0,1-5.2,9.1A25,25,0,0,1,111,146a29,29,0,0,1-11.4,2.1A29.5,29.5,0,0,1,88.1,146a25,25,0,0,1-8.5-6.1,25.5,25.5,0,0,1-5.2-9.1,35.5,35.5,0,0,1-1.8-11.5Zm15.2,1.1a34.2,34.2,0,0,0,.6,6.5,16.8,16.8,0,0,0,2.1,5.3,11,11,0,0,0,3.6,3.5,10.4,10.4,0,0,0,5.5,1.3,10.3,10.3,0,0,0,5.4-1.3,12,12,0,0,0,3.6-3.5,16.8,16.8,0,0,0,2.1-5.3,34.2,34.2,0,0,0,.6-6.5v-1.1a32.4,32.4,0,0,0-.6-6.4,16.8,16.8,0,0,0-2.1-5.3,9.8,9.8,0,0,0-3.7-3.6,11.1,11.1,0,0,0-10.8,0,9.6,9.6,0,0,0-3.6,3.6,16.8,16.8,0,0,0-2.1,5.3,32.4,32.4,0,0,0-.6,6.4Z"/><path class="cls-3" d="M167.7,104.5l-2.7-.3h-2.7a14.8,14.8,0,0,0-7.2,1.5,9,9,0,0,0-4.1,4.3v37.2H135.8V90.3h14.3l.5,6.8a16.6,16.6,0,0,1,5.3-5.8,12.8,12.8,0,0,1,7.3-2.1l2.6.2,2.2.5Z"/><path class="cls-3" d="M174.9,75.6a7.4,7.4,0,0,1,2.3-5.6,8.5,8.5,0,0,1,6.2-2.3,10.5,10.5,0,0,1,3.6.6,7.8,7.8,0,0,1,2.6,1.7,6.6,6.6,0,0,1,1.7,2.4,6.8,6.8,0,0,1,.7,3.2,6.4,6.4,0,0,1-.7,3.1,6.2,6.2,0,0,1-1.7,2.5,7.8,7.8,0,0,1-2.6,1.7,10.5,10.5,0,0,1-3.6.5,9.9,9.9,0,0,1-3.5-.5,9.5,9.5,0,0,1-2.7-1.7,7.4,7.4,0,0,1-1.7-2.5A7.8,7.8,0,0,1,174.9,75.6Zm16.2,71.5H175.8V90.3h15.3Z"/><path class="cls-3" d="M221,134.9h27.8v12.2H201.6v-9.2l26.7-35.3H202.4V90.3h45.5v9Z"/><path class="cls-3" d="M255.1,118.2a35.1,35.1,0,0,1,1.8-11.5,25.9,25.9,0,0,1,5.2-9.2,22.8,22.8,0,0,1,8.4-6.1,29,29,0,0,1,11.4-2.2,29.5,29.5,0,0,1,11.5,2.2,24,24,0,0,1,8.5,6.1,25.9,25.9,0,0,1,5.2,9.2,35.1,35.1,0,0,1,1.8,11.5v1.1a35.5,35.5,0,0,1-1.8,11.5,25.5,25.5,0,0,1-5.2,9.1,24.6,24.6,0,0,1-8.4,6.1,32.5,32.5,0,0,1-23,0,24.6,24.6,0,0,1-8.4-6.1,25.5,25.5,0,0,1-5.2-9.1,35.5,35.5,0,0,1-1.8-11.5Zm15.2,1.1a34.2,34.2,0,0,0,.6,6.5,16.7,16.7,0,0,0,2,5.3,11,11,0,0,0,3.6,3.5,10.4,10.4,0,0,0,5.5,1.3,10.3,10.3,0,0,0,5.4-1.3,12.4,12.4,0,0,0,3.7-3.5,16.7,16.7,0,0,0,2-5.3,34.2,34.2,0,0,0,.6-6.5v-1.1a32.4,32.4,0,0,0-.6-6.4,16.7,16.7,0,0,0-2-5.3,10.5,10.5,0,0,0-9.2-5,10.3,10.3,0,0,0-5.4,1.4,9.6,9.6,0,0,0-3.6,3.6,16.7,16.7,0,0,0-2,5.3,32.4,32.4,0,0,0-.6,6.4Z"/><path class="cls-3" d="M332.2,90.3l.5,6.5a20.3,20.3,0,0,1,7.1-5.6,21.4,21.4,0,0,1,9.2-2,21.7,21.7,0,0,1,7.4,1.2,12.6,12.6,0,0,1,5.7,3.7,18.5,18.5,0,0,1,3.6,6.7A32.9,32.9,0,0,1,367,111v69.4H351.8V110.9a14.7,14.7,0,0,0-.6-4.6,7.8,7.8,0,0,0-1.7-2.8,7.3,7.3,0,0,0-2.9-1.5,15.1,15.1,0,0,0-3.9-.4,10.4,10.4,0,0,0-9.6,5.4v40.1H317.9V90.3Z"/><path class="cls-4" d="M439.9,179.4H424.2V146.6H393.4v32.8H378.3V102.9h15.1v31h30.8v-31h15.7Z"/><path class="cls-4" d="M450.1,150.5a35.5,35.5,0,0,1,1.8-11.5,27.6,27.6,0,0,1,5.2-9.2,22.6,22.6,0,0,1,8.5-6,27.3,27.3,0,0,1,11.4-2.3,28.1,28.1,0,0,1,11.5,2.3,23.5,23.5,0,0,1,8.5,6,25.9,25.9,0,0,1,5.2,9.2,35.5,35.5,0,0,1,1.8,11.5v1.1a35.1,35.1,0,0,1-1.8,11.5,26.8,26.8,0,0,1-5.2,9.2,25.1,25.1,0,0,1-8.5,6,29,29,0,0,1-11.4,2.2,29.8,29.8,0,0,1-11.5-2.2,25.7,25.7,0,0,1-8.4-6,27.1,27.1,0,0,1-5.3-9.2,35.1,35.1,0,0,1-1.8-11.5Zm15.2,1.1a27,27,0,0,0,.7,6.5,14.6,14.6,0,0,0,2,5.3,10.1,10.1,0,0,0,3.6,3.5,10.4,10.4,0,0,0,5.5,1.3,10.3,10.3,0,0,0,5.4-1.3,10.1,10.1,0,0,0,3.6-3.5,14.7,14.7,0,0,0,2.1-5.3,33.4,33.4,0,0,0,.6-6.5v-1.1a32.4,32.4,0,0,0-.6-6.4,14.7,14.7,0,0,0-2.1-5.3,9.8,9.8,0,0,0-3.7-3.6,10.5,10.5,0,0,0-14.4,3.6,14.6,14.6,0,0,0-2,5.3,26.2,26.2,0,0,0-.7,6.4Z"/><path class="cls-4" d="M527.6,122.6l.4,6.4a19.4,19.4,0,0,1,6.9-5.5,21.8,21.8,0,0,1,9.5-2,18.7,18.7,0,0,1,9,2.1,13.9,13.9,0,0,1,6,6.6,20.1,20.1,0,0,1,7-6.3,20.4,20.4,0,0,1,10.1-2.4,21.9,21.9,0,0,1,7.5,1.2,14.1,14.1,0,0,1,5.8,3.7,18,18,0,0,1,3.7,6.7,33,33,0,0,1,1.3,10.1v36.2H579.6V143.2a14.4,14.4,0,0,0-.7-4.6,5.9,5.9,0,0,0-1.7-2.9,5.1,5.1,0,0,0-2.6-1.4,13.7,13.7,0,0,0-3.6-.4,9.4,9.4,0,0,0-5.9,1.8,10.1,10.1,0,0,0-3.6,4.7,1.3,1.3,0,0,0,.1.6v38.4H546.4V143.3a15.1,15.1,0,0,0-.6-4.6,6.7,6.7,0,0,0-1.6-2.9,6.9,6.9,0,0,0-2.8-1.5,12.5,12.5,0,0,0-3.5-.4,10.9,10.9,0,0,0-5.7,1.4,10.6,10.6,0,0,0-3.7,3.9v40.2H513.3V122.6Z"/><path class="cls-4" d="M632.6,180.5a29.2,29.2,0,0,1-11.8-2.2,25.2,25.2,0,0,1-8.9-5.9,24.1,24.1,0,0,1-5.6-8.7,29,29,0,0,1-1.9-10.7v-2.1a34.4,34.4,0,0,1,1.9-11.8,26.6,26.6,0,0,1,5.3-9.3,24.2,24.2,0,0,1,8.3-6.1,28,28,0,0,1,11-2.2,26,26,0,0,1,10.8,2.1,21.5,21.5,0,0,1,7.9,5.6,25.8,25.8,0,0,1,4.8,8.8,41.5,41.5,0,0,1,1.6,11.5v6.4H619.8a13.8,13.8,0,0,0,1.5,5.1,12.4,12.4,0,0,0,2.9,3.9,12.7,12.7,0,0,0,4.1,2.4,14.7,14.7,0,0,0,5.3.9,19.6,19.6,0,0,0,7.7-1.5,15.2,15.2,0,0,0,6-4.8l7.5,8.3a24.6,24.6,0,0,1-3.5,3.8,22.4,22.4,0,0,1-4.8,3.3,25.8,25.8,0,0,1-6.3,2.3A29.9,29.9,0,0,1,632.6,180.5Zm-1.7-46.7a10.2,10.2,0,0,0-4.4.9,10.8,10.8,0,0,0-3.2,2.4,15.1,15.1,0,0,0-2.2,3.7,33.7,33.7,0,0,0-1.2,4.8H641v-1.2a14.2,14.2,0,0,0-.6-4.2,10.1,10.1,0,0,0-1.8-3.4,10.7,10.7,0,0,0-3.2-2.2A12.5,12.5,0,0,0,630.9,133.8Z"/><path class="cls-4" d="M695.4,163.7a5.4,5.4,0,0,0-.5-2.2,4.4,4.4,0,0,0-1.8-1.8,15.2,15.2,0,0,0-3.6-1.7,52.5,52.5,0,0,0-5.8-1.5,59.3,59.3,0,0,1-8.1-2.4,24.5,24.5,0,0,1-6.4-3.5,15.1,15.1,0,0,1-4.2-4.9,13.3,13.3,0,0,1-1.5-6.5,15.6,15.6,0,0,1,1.5-6.7,17.5,17.5,0,0,1,4.5-5.7,20.9,20.9,0,0,1,7.1-3.8,28.5,28.5,0,0,1,9.6-1.5,34.3,34.3,0,0,1,9.9,1.4,24.1,24.1,0,0,1,7.5,3.8,18.5,18.5,0,0,1,4.7,5.8,16.8,16.8,0,0,1,1.7,7.4H694.8a7.3,7.3,0,0,0-2.1-5.4q-2.1-2.1-6.6-2.1c-2.5,0-4.5.5-5.9,1.7a5.5,5.5,0,0,0-2.1,4.4,4.8,4.8,0,0,0,.5,2.2,5.2,5.2,0,0,0,1.8,1.8,10.2,10.2,0,0,0,3.3,1.5,34,34,0,0,0,4.9,1.3,63.4,63.4,0,0,1,8.6,2.2,25.4,25.4,0,0,1,6.8,3.4,15.3,15.3,0,0,1,4.5,5,15.5,15.5,0,0,1-4.9,19.6,23.9,23.9,0,0,1-7.5,3.7,37.7,37.7,0,0,1-9.9,1.3,30.4,30.4,0,0,1-10.5-1.7,22.9,22.9,0,0,1-7.7-4.4,17.3,17.3,0,0,1-4.7-6.2,15.1,15.1,0,0,1-1.6-6.8h14.4a9.2,9.2,0,0,0,.9,3.8,9.6,9.6,0,0,0,2.3,2.6,12.2,12.2,0,0,0,3.3,1.4,13.1,13.1,0,0,0,3.9.5c2.9,0,5.1-.5,6.6-1.6A5.3,5.3,0,0,0,695.4,163.7Z"/><path class="cls-3" d="M439.9,179.4H424.2V146.6H393.4v32.8H378.3V102.9h15.1v31h30.8v-31h15.7Z"/><path class="cls-3" d="M450.1,150.5a35.5,35.5,0,0,1,1.8-11.5,27.6,27.6,0,0,1,5.2-9.2,22.6,22.6,0,0,1,8.5-6,27.3,27.3,0,0,1,11.4-2.3,28.1,28.1,0,0,1,11.5,2.3,23.5,23.5,0,0,1,8.5,6,25.9,25.9,0,0,1,5.2,9.2,35.5,35.5,0,0,1,1.8,11.5v1.1a35.1,35.1,0,0,1-1.8,11.5,26.8,26.8,0,0,1-5.2,9.2,25.1,25.1,0,0,1-8.5,6,29,29,0,0,1-11.4,2.2,29.8,29.8,0,0,1-11.5-2.2,25.7,25.7,0,0,1-8.4-6,27.1,27.1,0,0,1-5.3-9.2,35.1,35.1,0,0,1-1.8-11.5Zm15.2,1.1a27,27,0,0,0,.7,6.5,14.6,14.6,0,0,0,2,5.3,10.1,10.1,0,0,0,3.6,3.5,10.4,10.4,0,0,0,5.5,1.3,10.3,10.3,0,0,0,5.4-1.3,10.1,10.1,0,0,0,3.6-3.5,14.7,14.7,0,0,0,2.1-5.3,33.4,33.4,0,0,0,.6-6.5v-1.1a32.4,32.4,0,0,0-.6-6.4,14.7,14.7,0,0,0-2.1-5.3,9.8,9.8,0,0,0-3.7-3.6,10.5,10.5,0,0,0-14.4,3.6,14.6,14.6,0,0,0-2,5.3,26.2,26.2,0,0,0-.7,6.4Z"/><path class="cls-3" d="M527.6,122.6l.4,6.4a19.4,19.4,0,0,1,6.9-5.5,21.8,21.8,0,0,1,9.5-2,18.7,18.7,0,0,1,9,2.1,13.9,13.9,0,0,1,6,6.6,20.1,20.1,0,0,1,7-6.3,20.4,20.4,0,0,1,10.1-2.4,21.9,21.9,0,0,1,7.5,1.2,14.1,14.1,0,0,1,5.8,3.7,18,18,0,0,1,3.7,6.7,33,33,0,0,1,1.3,10.1v36.2H579.6V143.2a14.4,14.4,0,0,0-.7-4.6,5.9,5.9,0,0,0-1.7-2.9,5.1,5.1,0,0,0-2.6-1.4,13.7,13.7,0,0,0-3.6-.4,9.4,9.4,0,0,0-5.9,1.8,10.1,10.1,0,0,0-3.6,4.7,1.3,1.3,0,0,0,.1.6v38.4H546.4V143.3a15.1,15.1,0,0,0-.6-4.6,6.7,6.7,0,0,0-1.6-2.9,6.9,6.9,0,0,0-2.8-1.5,12.5,12.5,0,0,0-3.5-.4,10.9,10.9,0,0,0-5.7,1.4,10.6,10.6,0,0,0-3.7,3.9v40.2H513.3V122.6Z"/><path class="cls-3" d="M632.6,180.5a29.2,29.2,0,0,1-11.8-2.2,25.2,25.2,0,0,1-8.9-5.9,24.1,24.1,0,0,1-5.6-8.7,29,29,0,0,1-1.9-10.7v-2.1a34.4,34.4,0,0,1,1.9-11.8,26.6,26.6,0,0,1,5.3-9.3,24.2,24.2,0,0,1,8.3-6.1,28,28,0,0,1,11-2.2,26,26,0,0,1,10.8,2.1,21.5,21.5,0,0,1,7.9,5.6,25.8,25.8,0,0,1,4.8,8.8,41.5,41.5,0,0,1,1.6,11.5v6.4H619.8a13.8,13.8,0,0,0,1.5,5.1,12.4,12.4,0,0,0,2.9,3.9,12.7,12.7,0,0,0,4.1,2.4,14.7,14.7,0,0,0,5.3.9,19.6,19.6,0,0,0,7.7-1.5,15.2,15.2,0,0,0,6-4.8l7.5,8.3a24.6,24.6,0,0,1-3.5,3.8,22.4,22.4,0,0,1-4.8,3.3,25.8,25.8,0,0,1-6.3,2.3A29.9,29.9,0,0,1,632.6,180.5Zm-1.7-46.7a10.2,10.2,0,0,0-4.4.9,10.8,10.8,0,0,0-3.2,2.4,15.1,15.1,0,0,0-2.2,3.7,33.7,33.7,0,0,0-1.2,4.8H641v-1.2a14.2,14.2,0,0,0-.6-4.2,10.1,10.1,0,0,0-1.8-3.4,10.7,10.7,0,0,0-3.2-2.2A12.5,12.5,0,0,0,630.9,133.8Z"/><path class="cls-3" d="M695.4,163.7a5.4,5.4,0,0,0-.5-2.2,4.4,4.4,0,0,0-1.8-1.8,15.2,15.2,0,0,0-3.6-1.7,52.5,52.5,0,0,0-5.8-1.5,59.3,59.3,0,0,1-8.1-2.4,24.5,24.5,0,0,1-6.4-3.5,15.1,15.1,0,0,1-4.2-4.9,13.3,13.3,0,0,1-1.5-6.5,15.6,15.6,0,0,1,1.5-6.7,17.5,17.5,0,0,1,4.5-5.7,20.9,20.9,0,0,1,7.1-3.8,28.5,28.5,0,0,1,9.6-1.5,34.3,34.3,0,0,1,9.9,1.4,24.1,24.1,0,0,1,7.5,3.8,18.5,18.5,0,0,1,4.7,5.8,16.8,16.8,0,0,1,1.7,7.4H694.8a7.3,7.3,0,0,0-2.1-5.4q-2.1-2.1-6.6-2.1c-2.5,0-4.5.5-5.9,1.7a5.5,5.5,0,0,0-2.1,4.4,4.8,4.8,0,0,0,.5,2.2,5.2,5.2,0,0,0,1.8,1.8,10.2,10.2,0,0,0,3.3,1.5,34,34,0,0,0,4.9,1.3,63.4,63.4,0,0,1,8.6,2.2,25.4,25.4,0,0,1,6.8,3.4,15.3,15.3,0,0,1,4.5,5,15.5,15.5,0,0,1-4.9,19.6,23.9,23.9,0,0,1-7.5,3.7,37.7,37.7,0,0,1-9.9,1.3,30.4,30.4,0,0,1-10.5-1.7,22.9,22.9,0,0,1-7.7-4.4,17.3,17.3,0,0,1-4.7-6.2,15.1,15.1,0,0,1-1.6-6.8h14.4a9.2,9.2,0,0,0,.9,3.8,9.6,9.6,0,0,0,2.3,2.6,12.2,12.2,0,0,0,3.3,1.4,13.1,13.1,0,0,0,3.9.5c2.9,0,5.1-.5,6.6-1.6A5.3,5.3,0,0,0,695.4,163.7Z"/><path class="cls-5" d="M62.2,147.1H46.5V114.3H15.8v32.8H0V70.6H15.8v31H46.5v-31H62.2Z"/><path class="cls-5" d="M72.6,118.2a35.1,35.1,0,0,1,1.8-11.5,25.9,25.9,0,0,1,5.2-9.2A24.6,24.6,0,0,1,88,91.4a31.2,31.2,0,0,1,23,0,25,25,0,0,1,8.5,6.1,27.6,27.6,0,0,1,5.2,9.2,35.1,35.1,0,0,1,1.8,11.5v1.1a35.5,35.5,0,0,1-1.8,11.5,27.1,27.1,0,0,1-5.2,9.1A25,25,0,0,1,111,146a29,29,0,0,1-11.4,2.1A29.5,29.5,0,0,1,88.1,146a25,25,0,0,1-8.5-6.1,25.5,25.5,0,0,1-5.2-9.1,35.5,35.5,0,0,1-1.8-11.5Zm15.2,1.1a34.2,34.2,0,0,0,.6,6.5,16.8,16.8,0,0,0,2.1,5.3,11,11,0,0,0,3.6,3.5,10.4,10.4,0,0,0,5.5,1.3,10.3,10.3,0,0,0,5.4-1.3,12,12,0,0,0,3.6-3.5,16.8,16.8,0,0,0,2.1-5.3,34.2,34.2,0,0,0,.6-6.5v-1.1a32.4,32.4,0,0,0-.6-6.4,16.8,16.8,0,0,0-2.1-5.3,9.8,9.8,0,0,0-3.7-3.6,11.1,11.1,0,0,0-10.8,0,9.6,9.6,0,0,0-3.6,3.6,16.8,16.8,0,0,0-2.1,5.3,32.4,32.4,0,0,0-.6,6.4Z"/><path class="cls-5" d="M167.7,104.5l-2.7-.3h-2.7a14.8,14.8,0,0,0-7.2,1.5,9,9,0,0,0-4.1,4.3v37.2H135.8V90.3h14.3l.5,6.8a16.6,16.6,0,0,1,5.3-5.8,12.8,12.8,0,0,1,7.3-2.1l2.6.2,2.2.5Z"/><path class="cls-5" d="M174.9,75.6a7.4,7.4,0,0,1,2.3-5.6,8.5,8.5,0,0,1,6.2-2.3,10.5,10.5,0,0,1,3.6.6,7.8,7.8,0,0,1,2.6,1.7,6.6,6.6,0,0,1,1.7,2.4,6.8,6.8,0,0,1,.7,3.2,6.4,6.4,0,0,1-.7,3.1,6.2,6.2,0,0,1-1.7,2.5,7.8,7.8,0,0,1-2.6,1.7,10.5,10.5,0,0,1-3.6.5,9.9,9.9,0,0,1-3.5-.5,9.5,9.5,0,0,1-2.7-1.7,7.4,7.4,0,0,1-1.7-2.5A7.8,7.8,0,0,1,174.9,75.6Zm16.2,71.5H175.8V90.3h15.3Z"/><path class="cls-5" d="M513.3,122.6h14.3l.4,6.4a19.4,19.4,0,0,1,6.9-5.5,21.8,21.8,0,0,1,9.5-2,18.7,18.7,0,0,1,9,2.1,13.9,13.9,0,0,1,6,6.6,20.1,20.1,0,0,1,7-6.3,20.4,20.4,0,0,1,10.1-2.4,22.7,22.7,0,0,1,7.5,1.2L856.4-149.7,674-332.1,247.9,94v5.3L221,134.9h27.8v12.2H201.6v-6.8L97.8,244.1,280.1,426.5,527.2,179.4H513.3Zm-204.4-3.3a35.5,35.5,0,0,1-1.8,11.5,25.5,25.5,0,0,1-5.2,9.1,24.6,24.6,0,0,1-8.4,6.1,32.5,32.5,0,0,1-23,0,24.6,24.6,0,0,1-8.4-6.1,25.5,25.5,0,0,1-5.2-9.1,35.5,35.5,0,0,1-1.8-11.5v-1.1a35.1,35.1,0,0,1,1.8-11.5,25.9,25.9,0,0,1,5.2-9.2,22.8,22.8,0,0,1,8.4-6.1,29,29,0,0,1,11.4-2.2,29.5,29.5,0,0,1,11.5,2.2,24,24,0,0,1,8.5,6.1,25.9,25.9,0,0,1,5.2,9.2,35.1,35.1,0,0,1,1.8,11.5ZM367,180.4H351.8V110.9a14.7,14.7,0,0,0-.6-4.6,7.8,7.8,0,0,0-1.7-2.8,7.3,7.3,0,0,0-2.9-1.5,15.1,15.1,0,0,0-3.9-.4,10.4,10.4,0,0,0-9.6,5.4v40.1H317.9V90.3h14.3l.5,6.5a20.3,20.3,0,0,1,7.1-5.6,21.4,21.4,0,0,1,9.2-2,21.7,21.7,0,0,1,7.4,1.2,12.6,12.6,0,0,1,5.7,3.7,18.5,18.5,0,0,1,3.6,6.7A32.9,32.9,0,0,1,367,111Zm72.9-1H424.2V146.6H393.4v32.8H378.3V102.9h15.1v31h30.8v-31h15.7ZM504,151.6a35.1,35.1,0,0,1-1.8,11.5,26.8,26.8,0,0,1-5.2,9.2,25.1,25.1,0,0,1-8.5,6,29,29,0,0,1-11.4,2.2,29.8,29.8,0,0,1-11.5-2.2,25.7,25.7,0,0,1-8.4-6,27.1,27.1,0,0,1-5.3-9.2,35.1,35.1,0,0,1-1.8-11.5v-1.1a35.5,35.5,0,0,1,1.8-11.5,27.6,27.6,0,0,1,5.2-9.2,22.6,22.6,0,0,1,8.5-6,27.3,27.3,0,0,1,11.4-2.3,28.1,28.1,0,0,1,11.5,2.3,23.5,23.5,0,0,1,8.5,6,25.9,25.9,0,0,1,5.2,9.2,35.5,35.5,0,0,1,1.8,11.5Z"/><path class="cls-5" d="M545.8,138.7a6.7,6.7,0,0,0-1.6-2.9,6.9,6.9,0,0,0-2.8-1.5,12.5,12.5,0,0,0-3.5-.4,10.9,10.9,0,0,0-5.7,1.4,10.6,10.6,0,0,0-3.7,3.9v38.9l17.9-17.9V143.3A15.1,15.1,0,0,0,545.8,138.7Z"/><path class="cls-5" d="M486.1,138.8a9.8,9.8,0,0,0-3.7-3.6,10.5,10.5,0,0,0-14.4,3.6,14.6,14.6,0,0,0-2,5.3,26.2,26.2,0,0,0-.7,6.4v1.1a27,27,0,0,0,.7,6.5,14.6,14.6,0,0,0,2,5.3,10.1,10.1,0,0,0,3.6,3.5,10.4,10.4,0,0,0,5.5,1.3,10.3,10.3,0,0,0,5.4-1.3,10.1,10.1,0,0,0,3.6-3.5,14.7,14.7,0,0,0,2.1-5.3,33.4,33.4,0,0,0,.6-6.5v-1.1a32.4,32.4,0,0,0-.6-6.4A14.7,14.7,0,0,0,486.1,138.8Z"/><path class="cls-5" d="M291.1,106.5a10.5,10.5,0,0,0-9.2-5,10.3,10.3,0,0,0-5.4,1.4,9.6,9.6,0,0,0-3.6,3.6,16.7,16.7,0,0,0-2,5.3,32.4,32.4,0,0,0-.6,6.4v1.1a34.2,34.2,0,0,0,.6,6.5,16.7,16.7,0,0,0,2,5.3,11,11,0,0,0,3.6,3.5,10.4,10.4,0,0,0,5.5,1.3,10.3,10.3,0,0,0,5.4-1.3,12.4,12.4,0,0,0,3.7-3.5,16.7,16.7,0,0,0,2-5.3,34.2,34.2,0,0,0,.6-6.5v-1.1a32.4,32.4,0,0,0-.6-6.4A16.7,16.7,0,0,0,291.1,106.5Z"/><path class="cls-5" d="M565.1,135.7a10.1,10.1,0,0,0-3.6,4.7,1.3,1.3,0,0,0,.1.6v4.1L572.7,134H571A9.4,9.4,0,0,0,565.1,135.7Z"/><polygon class="cls-5" points="247.9 90.3 202.4 90.3 202.4 102.6 228.3 102.6 201.6 137.9 201.6 140.3 247.9 94 247.9 90.3"/><polygon class="cls-5" points="528.5 179.4 528.5 178.1 527.2 179.4 528.5 179.4"/><polygon class="cls-5" points="546.4 179.4 561.6 179.4 561.6 145.1 546.4 160.2 546.4 179.4"/><path class="cls-5" d="M589.8,126.4a14.1,14.1,0,0,0-5.8-3.7h0L572.7,134a6.3,6.3,0,0,1,1.9.3,5.1,5.1,0,0,1,2.6,1.4,5.9,5.9,0,0,1,1.7,2.9,14.4,14.4,0,0,1,.7,4.6v36.2h15.2V143.2a33,33,0,0,0-1.3-10.1A18,18,0,0,0,589.8,126.4Z"/><path class="cls-5" d="M632.6,180.5a29.2,29.2,0,0,1-11.8-2.2,25.2,25.2,0,0,1-8.9-5.9,24.1,24.1,0,0,1-5.6-8.7,29,29,0,0,1-1.9-10.7v-2.1a34.4,34.4,0,0,1,1.9-11.8,26.6,26.6,0,0,1,5.3-9.3,24.2,24.2,0,0,1,8.3-6.1,28,28,0,0,1,11-2.2,26,26,0,0,1,10.8,2.1,21.5,21.5,0,0,1,7.9,5.6,25.8,25.8,0,0,1,4.8,8.8,41.5,41.5,0,0,1,1.6,11.5v6.4H619.8a13.8,13.8,0,0,0,1.5,5.1,12.4,12.4,0,0,0,2.9,3.9,12.7,12.7,0,0,0,4.1,2.4,14.7,14.7,0,0,0,5.3.9,19.6,19.6,0,0,0,7.7-1.5,15.2,15.2,0,0,0,6-4.8l7.5,8.3a24.6,24.6,0,0,1-3.5,3.8,22.4,22.4,0,0,1-4.8,3.3,25.8,25.8,0,0,1-6.3,2.3A29.9,29.9,0,0,1,632.6,180.5Zm-1.7-46.7a10.2,10.2,0,0,0-4.4.9,10.8,10.8,0,0,0-3.2,2.4,15.1,15.1,0,0,0-2.2,3.7,33.7,33.7,0,0,0-1.2,4.8H641v-1.2a14.2,14.2,0,0,0-.6-4.2,10.1,10.1,0,0,0-1.8-3.4,10.7,10.7,0,0,0-3.2-2.2A12.5,12.5,0,0,0,630.9,133.8Z"/><path class="cls-5" d="M695.4,163.7a5.4,5.4,0,0,0-.5-2.2,4.4,4.4,0,0,0-1.8-1.8,15.2,15.2,0,0,0-3.6-1.7,52.5,52.5,0,0,0-5.8-1.5,59.3,59.3,0,0,1-8.1-2.4,24.5,24.5,0,0,1-6.4-3.5,15.1,15.1,0,0,1-4.2-4.9,13.3,13.3,0,0,1-1.5-6.5,15.6,15.6,0,0,1,1.5-6.7,17.5,17.5,0,0,1,4.5-5.7,20.9,20.9,0,0,1,7.1-3.8,28.5,28.5,0,0,1,9.6-1.5,34.3,34.3,0,0,1,9.9,1.4,24.1,24.1,0,0,1,7.5,3.8,18.5,18.5,0,0,1,4.7,5.8,16.8,16.8,0,0,1,1.7,7.4H694.8a7.3,7.3,0,0,0-2.1-5.4q-2.1-2.1-6.6-2.1c-2.5,0-4.5.5-5.9,1.7a5.5,5.5,0,0,0-2.1,4.4,4.8,4.8,0,0,0,.5,2.2,5.2,5.2,0,0,0,1.8,1.8,10.2,10.2,0,0,0,3.3,1.5,34,34,0,0,0,4.9,1.3,63.4,63.4,0,0,1,8.6,2.2,25.4,25.4,0,0,1,6.8,3.4,15.3,15.3,0,0,1,4.5,5,15.5,15.5,0,0,1-4.9,19.6,23.9,23.9,0,0,1-7.5,3.7,37.7,37.7,0,0,1-9.9,1.3,30.4,30.4,0,0,1-10.5-1.7,22.9,22.9,0,0,1-7.7-4.4,17.3,17.3,0,0,1-4.7-6.2,15.1,15.1,0,0,1-1.6-6.8h14.4a9.2,9.2,0,0,0,.9,3.8,9.6,9.6,0,0,0,2.3,2.6,12.2,12.2,0,0,0,3.3,1.4,13.1,13.1,0,0,0,3.9.5c2.9,0,5.1-.5,6.6-1.6A5.3,5.3,0,0,0,695.4,163.7Z"/></g></svg>